<svg width="1180" height="1120" viewBox="60 150 1050 1200" xmlns="http://www.w3.org/2000/svg">
<defs>
<linearGradient id="alu" x1="0.1" y1="0" x2="0.5" y2="1">
  <stop offset="0" stop-color="#EDEDF0"/><stop offset="1" stop-color="#D9D9DE"/></linearGradient>
<linearGradient id="key" x1="0" y1="0" x2="0" y2="1">
  <stop offset="0" stop-color="#FEFEFE"/><stop offset="1" stop-color="#F0F0F2"/></linearGradient>
<radialGradient id="knob" cx="0.4" cy="0.34" r="0.86">
  <stop offset="0" stop-color="#FAFAFB"/><stop offset="1" stop-color="#CFCFD5"/></radialGradient>
</defs>
<rect x="0" y="0" width="1400" height="1400" fill="#F7F7F9"/>
<g transform="translate(0,12.6)" opacity="0.035"><path d="M 145 190 L 660 190 L 660 228.1 A 150 150 0 1 1 660 477.9 L 660 1230 Q 660 1260 630 1260 L 145 1260 Q 115 1260 115 1230 L 115 220 Q 115 190 145 190 Z" fill="#1D1D1F" transform="scale(1.0162) translate(-5.8,-11.2)"/></g>
<g transform="translate(0,8.4)" opacity="0.035"><path d="M 145 190 L 660 190 L 660 228.1 A 150 150 0 1 1 660 477.9 L 660 1230 Q 660 1260 630 1260 L 145 1260 Q 115 1260 115 1230 L 115 220 Q 115 190 145 190 Z" fill="#1D1D1F" transform="scale(1.0108) translate(-3.8,-7.4)"/></g>
<g transform="translate(0,4.9)" opacity="0.035"><path d="M 145 190 L 660 190 L 660 228.1 A 150 150 0 1 1 660 477.9 L 660 1230 Q 660 1260 630 1260 L 145 1260 Q 115 1260 115 1230 L 115 220 Q 115 190 145 190 Z" fill="#1D1D1F" transform="scale(1.0063) translate(-2.2,-4.3)"/></g>
<g transform="translate(0,2.1)" opacity="0.035"><path d="M 145 190 L 660 190 L 660 228.1 A 150 150 0 1 1 660 477.9 L 660 1230 Q 660 1260 630 1260 L 145 1260 Q 115 1260 115 1230 L 115 220 Q 115 190 145 190 Z" fill="#1D1D1F" transform="scale(1.0027) translate(-1.0,-1.9)"/></g>
<path d="M 145 190 L 660 190 L 660 228.1 A 150 150 0 1 1 660 477.9 L 660 1230 Q 660 1260 630 1260 L 145 1260 Q 115 1260 115 1230 L 115 220 Q 115 190 145 190 Z" fill="url(#alu)"/>
<path d="M 145 190 L 660 190 L 660 228.1 A 150 150 0 1 1 660 477.9 L 660 1230 Q 660 1260 630 1260 L 145 1260 Q 115 1260 115 1230 L 115 220 Q 115 190 145 190 Z" fill="none" stroke="#C4C4CA" stroke-width="2.5"/>
<path d="M 145 190 L 660 190 L 660 228.1 A 150 150 0 1 1 660 477.9 L 660 1230 Q 660 1260 630 1260 L 145 1260 Q 115 1260 115 1230 L 115 220 Q 115 190 145 190 Z" fill="none" stroke="#FFFFFF" stroke-width="2" opacity="0.55" transform="translate(0,2)"/>
<circle cx="200" cy="268" r="65" fill="#000" opacity="0.06"/>
<circle cx="200" cy="272" r="62" fill="#A2A2A8" opacity="0.5"/>
<circle cx="200" cy="268" r="62" fill="url(#knob)" stroke="#AEAEB4" stroke-width="3"/>
<circle cx="200" cy="268" r="51" fill="none" stroke="#E4E4E8" stroke-width="1.2"/>
<circle cx="168" cy="236" r="5" fill="#96969D"/>
<circle cx="200" cy="268" r="16" fill="#8A8A90"/>
<text x="200" y="273.5" text-anchor="middle" font-family="Geist Mono" font-size="16" fill="#FFFFFF" font-weight="bold">1</text>
<circle cx="197" cy="475" r="65" fill="#000" opacity="0.06"/>
<circle cx="197" cy="479" r="62" fill="#A2A2A8" opacity="0.5"/>
<circle cx="197" cy="475" r="62" fill="url(#knob)" stroke="#AEAEB4" stroke-width="3"/>
<circle cx="197" cy="475" r="51" fill="none" stroke="#E4E4E8" stroke-width="1.2"/>
<circle cx="165" cy="443" r="5" fill="#96969D"/>
<circle cx="197" cy="475" r="16" fill="#8A8A90"/>
<text x="197" y="480.5" text-anchor="middle" font-family="Geist Mono" font-size="16" fill="#FFFFFF" font-weight="bold">2</text>
<circle cx="432" cy="353" r="87" fill="#000" opacity="0.06"/>
<circle cx="432" cy="357" r="84" fill="#A2A2A8" opacity="0.5"/>
<circle cx="432" cy="353" r="84" fill="url(#knob)" stroke="#AEAEB4" stroke-width="3"/>
<circle cx="432" cy="353" r="73" fill="none" stroke="#E4E4E8" stroke-width="1.2"/>
<circle cx="388" cy="309" r="5" fill="#96969D"/>
<circle cx="432" cy="353" r="16" fill="#8A8A90"/>
<text x="432" y="358.5" text-anchor="middle" font-family="Geist Mono" font-size="16" fill="#FFFFFF" font-weight="bold">3</text>
<circle cx="743" cy="353" r="115" fill="#000" opacity="0.06"/>
<circle cx="743" cy="357" r="112" fill="#A2A2A8" opacity="0.5"/>
<circle cx="743" cy="353" r="112" fill="url(#knob)" stroke="#AEAEB4" stroke-width="3"/>
<circle cx="743" cy="353" r="101" fill="none" stroke="#E4E4E8" stroke-width="1.2"/>
<circle cx="685" cy="295" r="5" fill="#96969D"/>
<circle cx="743" cy="353" r="16" fill="#8A8A90"/>
<text x="743" y="358.5" text-anchor="middle" font-family="Geist Mono" font-size="16" fill="#FFFFFF" font-weight="bold">4</text>
<rect x="136.0" y="616.0" width="118" height="108" rx="14" fill="#B6B6BC"/>
<rect x="136.0" y="611.0" width="118" height="108" rx="14" fill="url(#key)" stroke="#C2C2C8" stroke-width="2"/>
<text x="195" y="674" text-anchor="middle" font-family="Geist Mono" font-size="25" fill="#A4A4AA">5</text>
<rect x="291.0" y="616.0" width="118" height="108" rx="14" fill="#B6B6BC"/>
<rect x="291.0" y="611.0" width="118" height="108" rx="14" fill="url(#key)" stroke="#C2C2C8" stroke-width="2"/>
<text x="350" y="674" text-anchor="middle" font-family="Geist Mono" font-size="25" fill="#A4A4AA">6</text>
<rect x="463.0" y="616.0" width="118" height="108" rx="14" fill="#B6B6BC"/>
<rect x="463.0" y="611.0" width="118" height="108" rx="14" fill="url(#key)" stroke="#C2C2C8" stroke-width="2"/>
<text x="522" y="674" text-anchor="middle" font-family="Geist Mono" font-size="25" fill="#A4A4AA">7</text>
<rect x="136.0" y="778.0" width="118" height="108" rx="14" fill="#B6B6BC"/>
<rect x="136.0" y="773.0" width="118" height="108" rx="14" fill="url(#key)" stroke="#C2C2C8" stroke-width="2"/>
<text x="195" y="836" text-anchor="middle" font-family="Geist Mono" font-size="25" fill="#A4A4AA">8</text>
<rect x="291.0" y="778.0" width="118" height="108" rx="14" fill="#B6B6BC"/>
<rect x="291.0" y="773.0" width="118" height="108" rx="14" fill="url(#key)" stroke="#C2C2C8" stroke-width="2"/>
<text x="350" y="836" text-anchor="middle" font-family="Geist Mono" font-size="25" fill="#A4A4AA">9</text>
<rect x="463.0" y="778.0" width="118" height="108" rx="14" fill="#B6B6BC"/>
<rect x="463.0" y="773.0" width="118" height="108" rx="14" fill="url(#key)" stroke="#C2C2C8" stroke-width="2"/>
<text x="522" y="836" text-anchor="middle" font-family="Geist Mono" font-size="25" fill="#A4A4AA">10</text>
<rect x="136.0" y="938.0" width="118" height="108" rx="14" fill="#B6B6BC"/>
<rect x="136.0" y="933.0" width="118" height="108" rx="14" fill="url(#key)" stroke="#C2C2C8" stroke-width="2"/>
<text x="195" y="996" text-anchor="middle" font-family="Geist Mono" font-size="25" fill="#A4A4AA">11</text>
<rect x="291.0" y="938.0" width="118" height="108" rx="14" fill="#B6B6BC"/>
<rect x="291.0" y="933.0" width="118" height="108" rx="14" fill="url(#key)" stroke="#C2C2C8" stroke-width="2"/>
<text x="350" y="996" text-anchor="middle" font-family="Geist Mono" font-size="25" fill="#A4A4AA">12</text>
<rect x="463.0" y="938.0" width="118" height="108" rx="14" fill="#B6B6BC"/>
<rect x="463.0" y="933.0" width="118" height="108" rx="14" fill="url(#key)" stroke="#C2C2C8" stroke-width="2"/>
<text x="522" y="996" text-anchor="middle" font-family="Geist Mono" font-size="25" fill="#A4A4AA">13</text>
<rect x="136.0" y="1103.0" width="118" height="108" rx="14" fill="#B6B6BC"/>
<rect x="136.0" y="1098.0" width="118" height="108" rx="14" fill="url(#key)" stroke="#C2C2C8" stroke-width="2"/>
<text x="195" y="1161" text-anchor="middle" font-family="Geist Mono" font-size="25" fill="#A4A4AA">14</text>
<rect x="291.0" y="1103.0" width="118" height="108" rx="14" fill="#B6B6BC"/>
<rect x="291.0" y="1098.0" width="118" height="108" rx="14" fill="url(#key)" stroke="#C2C2C8" stroke-width="2"/>
<text x="350" y="1161" text-anchor="middle" font-family="Geist Mono" font-size="25" fill="#A4A4AA">15</text>
<rect x="463.0" y="1103.0" width="118" height="108" rx="14" fill="#B6B6BC"/>
<rect x="463.0" y="1098.0" width="118" height="108" rx="14" fill="url(#key)" stroke="#C2C2C8" stroke-width="2"/>
<text x="522" y="1161" text-anchor="middle" font-family="Geist Mono" font-size="25" fill="#A4A4AA">16</text>
<line x1="900" y1="248" x2="948" y2="248" stroke="#D6D6DB" stroke-width="2"/>
<text x="960" y="256" font-family="Jura Light" font-size="28" fill="#AEAEB4" letter-spacing="1">4 knobs</text>
<text x="960" y="290" font-family="Instrument Sans" font-size="16" fill="#C6C6CC">turn · press · turn</text>
<line x1="600" y1="900" x2="700" y2="900" stroke="#D6D6DB" stroke-width="2"/>
<text x="712" y="908" font-family="Jura Light" font-size="28" fill="#AEAEB4" letter-spacing="1">12 keys</text>
<text x="115" y="1322" font-family="Geist Mono" font-size="16" fill="#C2C2C8" letter-spacing="3">514C:8850 · @XZKJ-12key_4knob</text>
</svg>
